<svg xmlns="http://www.w3.org/2000/svg">
    <defs>
        <symbol id="arrow-left"><path d="M 8.5 1 10 2.5 5.5 7 H 15 V 9 H 5.5 L 10 13.5 8.5 15 1.5 8 Z" fill="currentColor"/></symbol>
        <symbol id="arrow-right"><path d="M 7.5 1 6 2.5 10.5 7 H 1 V 9 H 10.5 L 6 13.5 7.5 15 14.5 8 Z" fill="currentColor"/></symbol>
        <symbol id="refresh"><path d="M 8 1 A 7 7 0 0 0 1 8 A 7 7 0 0 0 8 15 A 7 7 0 0 0 14.701172 10 L 12.580078 10 A 5 5 0 0 1 8 13 A 5 5 0 0 1 3 8 A 5 5 0 0 1 8 3 A 5 5 0 0 1 11.769531 4.7304688 L 9.5 7 L 15 7 L 15 1.5 L 13.185547 3.3144531 A 7 7 0 0 0 8 1 z" fill="currentColor"/></symbol>
        <symbol id="zoom-in"><path d="M 7 0 A 7 7 0 0 0 0 7 A 7 7 0 0 0 7 14 A 7 7 0 0 0 11.136719 12.636719 L 14.5 16 L 16 14.5 L 12.636719 11.136719 A 7 7 0 0 0 14 7 A 7 7 0 0 0 7 0 z M 7 2 A 5 5 0 0 1 12 7 A 5 5 0 0 1 7 12 A 5 5 0 0 1 2 7 A 5 5 0 0 1 7 2 z M 6 4 L 6 6 L 4 6 L 4 8 L 6 8 L 6 10 L 8 10 L 8 8 L 10 8 L 10 6 L 8 6 L 8 4 L 6 4 z" fill="currentColor"/></symbol>
        <symbol id="zoom-out"><path d="M 7 0 A 7 7 0 0 0 0 7 A 7 7 0 0 0 7 14 A 7 7 0 0 0 11.136719 12.636719 L 14.5 16 L 16 14.5 L 12.636719 11.136719 A 7 7 0 0 0 14 7 A 7 7 0 0 0 7 0 z M 7 2 A 5 5 0 0 1 12 7 A 5 5 0 0 1 7 12 A 5 5 0 0 1 2 7 A 5 5 0 0 1 7 2 z M 4 6 L 4 8 L 10 8 L 10 6 L 4 6 z" fill="currentColor"/></symbol>
        <symbol id="pen"><path d="M 11.5 1 10 2.5 13.5 6 15 4.5 Z M 9.5 3 2 10.5 V 14 H 5.5 L 13 6.5 Z" fill="currentColor"/></symbol>
        <symbol id="trash"><path d="M 6 1 L 6 2 L 3 2 L 3 4 L 13 4 L 13 2 L 10 2 L 10 1 L 6 1 z M 4 5 C 4 8 4 13 5 15 L 11 15 C 12 13 12 8 12 5 L 4 5 z" fill="currentColor"/></symbol>
        <symbol id="user">
            <circle cx="12" cy="12" r="12" opacity="0.1" fill="currentColor"/>
            <path d="M 12 5 A 4 4 0 0 0 8 9 A 4 4 0 0 0 12 13 A 4 4 0 0 0 16 9 A 4 4 0 0 0 12 5 z M 12 14 A 8 8 0 0 0 4.0703125 20.992188 A 12 12 0 0 0 12 24 A 12 12 0 0 0 19.925781 20.990234 A 8 8 0 0 0 12 14 z" fill="currentColor"/>
        </symbol>
        <symbol id="parent"><path d="M 1,0 C 0.446,0 0,0.446 0,1 V 2 C 0,2.554 0.446,3 1,3 V 4 C 1,4.554 1.446,5 2,5 H 3 C 3,5.554 3.446,6 4,6 H 5 C 5.554,6 6,5.554 6,5 V 4 C 6,3.446 5.554,3 5,3 H 4 C 3.446,3 3,3.446 3,4 H 2 V 3 C 2.554,3 3,2.554 3,2 V 1 C 3,0.446 2.554,0 2,0 Z M 1,1 H 2 V 2 H 1 Z M 4,4 H 5 V 5 H 4 Z" fill="currentColor"/></symbol>
        <symbol id="warning"><path d="M 10 0 A 10 10 0 0 0 0 10 A 10 10 0 0 0 10 20 A 10 10 0 0 0 20 10 A 10 10 0 0 0 10 0 z M 9 5 L 11 5 L 11 11 L 9 11 L 9 5 z M 9 13 L 11 13 L 11 15 L 9 15 L 9 13 z" fill="currentColor"></path></symbol>
        <symbol id="cog"><path d="M 7 0 L 7 2.0898438 A 6 6 0 0 0 4.5761719 3.0761719 L 3 1.5 L 1.5 3 L 3.0800781 4.5800781 A 6 6 0 0 0 2.0859375 7 L 0 7 L 0 9 L 2.0898438 9 A 6 6 0 0 0 3.0761719 11.423828 L 1.5 13 L 3 14.5 L 4.5800781 12.919922 A 6 6 0 0 0 7 13.914062 L 7 16 L 9 16 L 9 13.910156 A 6 6 0 0 0 11.423828 12.923828 L 13 14.5 L 14.5 13 L 12.919922 11.419922 A 6 6 0 0 0 13.914062 9 L 16 9 L 16 7 L 13.910156 7 A 6 6 0 0 0 12.923828 4.5761719 L 14.5 3 L 13 1.5 L 11.419922 3.0800781 A 6 6 0 0 0 9 2.0859375 L 9 0 L 7 0 z M 8 4 A 4 4 0 0 1 12 8 A 4 4 0 0 1 8 12 A 4 4 0 0 1 4 8 A 4 4 0 0 1 8 4 z" fill="currentColor"></path></symbol>
        <symbol id="plus"><path d="M 1,9 V 7 H 7 V 1 h 2 v 6 h 6 V 9 H 9 v 6 H 7 V 9 Z" fill="currentColor"></path></symbol>
    </defs>
</svg>
